<?xml version="1.0" encoding="UTF-8" standalone="no"?>
<!-- Created with Inkscape (http://www.inkscape.org/) -->

<svg
   version="1.1"
   id="svg1"
   width="602.13348"
   height="525.33929"
   viewBox="0 0 602.1335 525.33929"
   xmlns="http://www.w3.org/2000/svg"
   xmlns:svg="http://www.w3.org/2000/svg">
  <defs
     id="defs1">
    <linearGradient
       id="swatch49">
      <stop
         style="stop-color:#ff1e1e;stop-opacity:0.92841169;"
         offset="0"
         id="stop49" />
    </linearGradient>
    <rect
       x="316.36816"
       y="1240.1892"
       width="38.897724"
       height="49.918747"
       id="rect29" />
    <linearGradient
       id="swatch16">
      <stop
         style="stop-color:#9d0707;stop-opacity:1;"
         offset="0"
         id="stop16" />
    </linearGradient>
    <linearGradient
       id="swatch3">
      <stop
         style="stop-color:#f8f2f2;stop-opacity:1;"
         offset="0"
         id="stop3" />
    </linearGradient>
  </defs>
  <g
     id="layer1-0"
     style="display:inline;mix-blend-mode:lighten"
     transform="translate(-154.64768,-308.42497)">
    <path
       style="display:inline;opacity:1;fill:#a29a87;fill-opacity:1;stroke:none;stroke-dasharray:none;stroke-dashoffset:0;stroke-opacity:0.0809524"
       d="m 218.47768,428.84497 242.2084,-120.42 234.6821,116.9989 v 51.9996 h -17.7893 l 0.6842,-41.0523 -217.577,-108.7885 -225.1033,112.2095 0.6842,41.0523 h -17.7893 z"
       id="path9-9" />
    <path
       style="opacity:1;mix-blend-mode:hue;fill:#9d9990;fill-opacity:1;stroke:none;stroke-width:1;stroke-linecap:round;stroke-linejoin:miter;stroke-dasharray:none;stroke-dashoffset:0;stroke-opacity:1;paint-order:normal"
       d="m 492.98978,392.03347 1.1752,-2.085 -34.2318,-16.7084 -23.908,12.0898 -0.047,-8.1504 h -2.6695 l -0.1358,9.5088 -6.3433,3.39 1.4057,2.2268 4.9376,-2.7641 v 47.0009 l 54.2004,0.1358 -0.3602,-45.9906 -2.581,0.047 0.089,43.77 -48.4951,-0.4076 -0.1359,-45.9141 24.0438,-11.954 z"
       id="path10-2" />
    <path
       style="opacity:0;fill:#756a5b;fill-opacity:1;stroke:none;stroke-width:1;stroke-linecap:round;stroke-linejoin:miter;stroke-dasharray:none;stroke-dashoffset:0;stroke-opacity:1;paint-order:normal"
       d="m 155.15608,595.40007 -0.5084,-44.9911 7.1173,0.2542 11.6926,34.3153 12.7093,-33.8069 6.3547,-0.2542 -0.5083,45.2453 h -5.0838 l 1.0168,-38.1281 -12.201,33.0443 h -3.8128 l -12.201,-33.0443 0.5084,38.1281 z"
       id="path16-4" />
    <path
       id="path20-9"
       style="baseline-shift:baseline;display:inline;overflow:visible;opacity:1;mix-blend-mode:normal;vector-effect:none;fill:#756a5b;fill-opacity:1;stroke:none;stroke-linecap:round;enable-background:accumulate;stop-color:#000000;stop-opacity:1"
       d="m 230.39578,550.40947 v 45.7539 l 15.5728,0.081 c 0,0 16.2257,0.3287 16.31,-13.1886 0.065,-10.5139 -9.6214,-11.6159 -9.6214,-11.6159 0,0 6.5444,-1.3362 6.5726,-10.6869 0.029,-9.6618 -13.972,-10.4249 -13.972,-10.4249 z m 5.8457,4.83 h 7.1313 c 0,0 10.0058,-0.168 10.1538,6.8614 0.1504,7.1411 -9.5261,7.7468 -9.5261,7.7468 l -7.6779,-0.053 z m 0.2539,19.5723 10.7835,0.067 c 0,0 9.14,1.0117 9.0446,7.8119 -0.1,7.1349 -8.5086,8.3075 -8.5086,8.3075 l -11.3583,0.014 z" />
    <path
       style="opacity:1;fill:#9f9784;fill-opacity:1;stroke:none;stroke-width:12.537;stroke-linecap:butt;stroke-linejoin:miter;stroke-dasharray:none;stroke-dashoffset:0;stroke-opacity:1;paint-order:normal"
       d="m 360.72148,558.95377 2.8559,-3.4679 c 0,0 -4.9643,-6.1332 -12.5458,-5.9159 -5.2747,0.1512 -10.7231,2.4226 -14.2797,6.8339 -4.0303,4.9988 -5.3105,13.1361 -5.2062,17.82 0.1184,5.3153 2.132,13.6684 6.5328,17.3705 4.2889,3.6079 8.8562,4.9001 13.1571,4.9968 7.221,0.1624 13.5658,-6.3239 13.5658,-6.3239 l -3.1113,-3.0602 c 0,0 -3.5851,4.5928 -10.4034,4.3865 -2.3416,-0.071 -14.3808,-0.2674 -14.1654,-17.4419 0.21,-16.7418 8.0863,-19.2849 13.7063,-19.3798 7.0474,-0.119 9.8939,4.1819 9.8939,4.1819 z"
       id="path29-1" />
    <path
       style="display:inline;opacity:1;mix-blend-mode:lighten;fill:#9f9784;fill-opacity:1;stroke:none;stroke-width:12.537;stroke-linecap:butt;stroke-linejoin:miter;stroke-dasharray:none;stroke-dashoffset:0;stroke-opacity:1;paint-order:normal"
       d="m 565.76658,558.95887 2.8559,-3.4679 c 0,0 -4.9643,-6.1332 -12.5458,-5.9159 -5.2748,0.1512 -10.7232,2.4226 -14.2798,6.8339 -4.0302,4.9988 -5.4549,13.0638 -5.3506,17.7477 0.1184,5.3153 1.8007,12.1087 6.0076,16.6466 3.8224,4.1232 9.5259,5.6963 13.8268,5.793 7.221,0.1624 13.5658,-6.3239 13.5658,-6.3239 l -3.2726,-3.8544 c 0,0 -2.6981,4.6349 -10.1912,4.8026 -2.8565,0.064 -14.9129,-2.8176 -14.7388,-16.9619 0.1903,-15.4525 8.4134,-18.8006 14.0334,-18.8955 7.0474,-0.119 10.0893,3.5957 10.0893,3.5957 z"
       id="path29-6-0" />
    <path
       id="path30-7-3"
       style="display:inline;opacity:1;mix-blend-mode:lighten;fill:#fcfcfc;fill-opacity:1;stroke:none;stroke-width:3.3388;stroke-linecap:butt;stroke-linejoin:miter;stroke-dasharray:none;stroke-dashoffset:0;stroke-opacity:1;paint-order:normal"
       d="m 500.28168,674.95467 c -4.1905,0.03 -5.8116,3.1058 -5.8154,6.3585 0,3.6264 1.4333,6.742 5.8455,6.6934 3.4988,-0.037 5.8093,-2.5065 5.8475,-6.469 0.032,-3.3221 -1.8541,-6.6114 -5.8776,-6.5829 z m 0.096,1.938 c 2.7867,-0.042 3.6053,2.1753 3.6265,4.6278 0.021,2.4006 -1.0255,4.6443 -3.6529,4.6181 -2.7483,-0.027 -3.6252,-2.4703 -3.6529,-4.7749 -0.029,-2.406 1.046,-4.4313 3.6793,-4.471 z" />
    <path
       id="path30-7-4-0"
       style="display:inline;opacity:1;mix-blend-mode:normal;fill:#fcfcfc;fill-opacity:1;stroke:none;stroke-width:3.3388;stroke-linecap:butt;stroke-linejoin:miter;stroke-dasharray:none;stroke-dashoffset:0;stroke-opacity:1;paint-order:normal"
       d="m 590.65958,674.95817 c -4.1905,0.03 -5.8116,3.1042 -5.8154,6.3568 0,3.6264 1.4333,6.7437 5.8455,6.6951 3.4989,-0.037 5.8093,-2.5082 5.8475,-6.4706 0.032,-3.3222 -1.8541,-6.6098 -5.8776,-6.5813 z m -0.04,1.6903 c 2.7867,-0.042 3.4617,2.5095 3.4829,4.962 0.021,2.4006 -0.8837,4.513 -3.5111,4.4868 -2.7484,-0.027 -3.4256,-2.4299 -3.4534,-4.7345 -0.029,-2.406 0.8483,-4.6746 3.4816,-4.7143 z" />
    <path
       id="path30-9"
       style="display:inline;opacity:1;mix-blend-mode:normal;fill:#9f9784;fill-opacity:1;stroke:none;stroke-width:12.537;stroke-linecap:butt;stroke-linejoin:miter;stroke-dasharray:none;stroke-dashoffset:0;stroke-opacity:1;paint-order:normal"
       d="m 415.08718,549.46807 c -14.0364,0.1076 -19.4697,11.2563 -19.4824,23.0507 -0.014,13.15 4.8049,24.4516 19.5839,24.2754 11.7196,-0.1397 19.4562,-9.0907 19.584,-23.4589 0.1072,-12.0463 -6.2087,-23.9705 -19.6855,-23.8672 z m 0.2031,5.2011 c 10.4447,-0.1579 12.9774,9.4405 13.0566,18.6661 0.078,9.0305 -3.3105,18.3568 -13.1582,18.2578 -10.3011,-0.103 -13.6658,-9.6901 -13.7695,-18.3594 -0.1082,-9.0507 4.0012,-18.4153 13.8711,-18.5645 z" />
    <path
       style="opacity:1;fill:#9f9784;fill-opacity:1;stroke:none;stroke-width:12.537;stroke-linecap:butt;stroke-linejoin:miter;stroke-dasharray:none;stroke-dashoffset:0;stroke-opacity:1;paint-order:normal"
       d="m 468.83968,595.67327 0.204,-44.8793 h 5.61 l 21.6236,38.2494 -0.612,-38.3514 h 5.4059 l -0.102,45.1853 -5.5079,0.102 -21.7256,-38.3514 0.408,38.2494 z"
       id="path32-1" />
    <path
       style="display:inline;opacity:1;mix-blend-mode:lighten;fill:#fcfcfc;fill-opacity:1;stroke:none;stroke-width:4.05388;stroke-linecap:butt;stroke-linejoin:miter;stroke-dasharray:none;stroke-dashoffset:0;stroke-opacity:1;paint-order:normal"
       d="m 602.44098,687.87577 0.074,-12.9343 2.908,0.061 6.6979,9.7501 0.052,-9.8411 h 1.9612 l -0.037,13.0225 -1.9982,0.03 -7.7108,-11.053 -0.023,11.0236 z"
       id="path32-9-9" />
    <path
       style="opacity:1;fill:#bebdbb;fill-opacity:1;stroke:none;stroke-width:12.537;stroke-linecap:butt;stroke-linejoin:miter;stroke-dasharray:none;stroke-dashoffset:0;stroke-opacity:1;paint-order:normal"
       d="m 603.27358,550.58997 -0.102,45.3893 27.0296,-0.102 -0.204,-4.692 h -21.1137 l -0.102,-16.4217 17.5437,-0.306 -0.102,-4.4879 -17.4417,-0.306 -0.204,-14.1778 20.6037,-0.102 -0.204,-4.6919 z"
       id="path33-8" />
    <path
       style="display:inline;opacity:1;mix-blend-mode:lighten;fill:#fcfcfc;fill-opacity:1;stroke:none;stroke-width:4.38916;stroke-linecap:butt;stroke-linejoin:miter;stroke-dasharray:none;stroke-dashoffset:0;stroke-opacity:1;paint-order:normal"
       d="m 429.18138,675.03047 -0.084,13.0526 h 11.6934 l -0.011,-1.7504 h -9.3564 l 0.035,-4.3014 7.6226,-0.028 -0.01,-1.7025 h -7.6384 l 0.031,-3.5845 h 8.7718 l 0.023,-1.6643 z"
       id="path33-7-6" />
    <path
       id="path34-9"
       style="opacity:1;fill:#bebdbb;fill-opacity:1;stroke:none;stroke-width:12.537;stroke-linecap:butt;stroke-linejoin:miter;stroke-dasharray:none;stroke-dashoffset:0;stroke-opacity:1;paint-order:normal"
       d="m 679.71608,550.47587 c -0.4189,-0.003 -0.6582,0.0117 -0.6582,0.0117 l -14.9942,0.1016 0.1036,45.1855 5.8125,0.2051 -0.1016,-18.0547 9.6894,-0.1016 c 0,0 14.7674,1.4486 14.7911,-14.0761 0.019,-12.4067 -11.7103,-13.2536 -14.6426,-13.2715 z m -3.0039,4.5 c 8.8597,0.1119 11.4724,3.4878 11.6289,8.9765 0.1638,5.7458 -2.4378,9.2826 -12.1387,9.0782 -2.1102,-0.044 -6.0176,-0.1036 -6.0176,-0.1036 l -0.4082,-17.6445 c 0,0 5.0267,-0.3306 6.9356,-0.3066 z" />
    <path
       style="opacity:1;fill:#bebdbb;fill-opacity:1;stroke:none;stroke-width:12.537;stroke-linecap:butt;stroke-linejoin:miter;stroke-dasharray:none;stroke-dashoffset:0;stroke-opacity:1;paint-order:normal"
       d="m 723.73368,550.69197 33.0475,-0.102 -0.102,4.6919 h -13.5658 l -0.102,40.4934 -5.6099,0.102 0.102,-40.5954 -13.5658,-0.102 z"
       id="path36-1" />
    <path
       style="opacity:1;fill:#fcfcfc;fill-opacity:1;stroke:none;stroke-width:11.9138;stroke-linecap:butt;stroke-linejoin:miter;stroke-dasharray:none;stroke-dashoffset:0;stroke-opacity:1;paint-order:normal"
       d="m 286.70428,674.85637 11.7305,0.021 v 2.1071 l -4.4034,-0.023 -0.141,11.0162 h -2.5421 v -11.0188 h -4.6483 z"
       id="path37-6" />
    <path
       style="display:inline;opacity:1;mix-blend-mode:lighten;fill:#fcfcfc;fill-opacity:1;stroke:none;stroke-width:11.9138;stroke-linecap:butt;stroke-linejoin:miter;stroke-dasharray:none;stroke-dashoffset:0;stroke-opacity:1;paint-order:normal"
       d="m 446.60298,675.14097 11.7305,0.021 v 2.1071 l -4.4034,-0.023 -0.141,11.0162 h -2.542 v -11.0188 h -4.6484 z"
       id="path37-6-7" />
    <path
       style="display:inline;opacity:1;mix-blend-mode:lighten;fill:#fcfcfc;fill-opacity:1;stroke:none;stroke-width:11.9138;stroke-linecap:butt;stroke-linejoin:miter;stroke-dasharray:none;stroke-dashoffset:0;stroke-opacity:1;paint-order:normal"
       d="m 549.28158,675.17697 11.7304,0.021 v 1.9393 l -4.8062,0.01 -0.074,11.1421 -2.2064,0.01 -0.034,-11.1531 -4.5812,-0.034 z"
       id="path37-6-7-4" />
    <path
       id="path38-8"
       style="opacity:1;fill:#fcfcfc;fill-opacity:1;fill-rule:nonzero;stroke:none;stroke-width:0;stroke-linecap:butt;stroke-linejoin:miter;stroke-dasharray:none;stroke-dashoffset:0;stroke-opacity:1;paint-order:normal"
       d="m 310.96758,675.00457 h -5.3224 v 12.9753 l 2.4003,0.079 0.062,-5.577 2.576,0.028 4.2254,5.5019 2.4758,0.023 -4.3977,-5.6134 c 0,0 3.2228,-0.4677 3.0361,-3.747 -0.123,-2.1622 -0.7814,-3.7206 -5.0604,-3.6665 z m -2.9203,1.8412 c 0,0 1.3982,-0.033 2.7293,-0.023 2.3797,0.014 3.3978,0.2252 3.4298,1.9638 0.026,1.4164 -1.2035,1.8212 -3.2258,1.958 -1.4423,-0.028 -2.9548,-0.034 -2.9548,-0.034 z" />
    <path
       id="path40-1"
       style="opacity:1;fill:#fcfcfc;fill-opacity:1;stroke:none;stroke-width:11.3233;stroke-linecap:butt;stroke-linejoin:miter;stroke-dasharray:none;stroke-dashoffset:0;stroke-opacity:1;paint-order:normal"
       d="m 328.63018,675.01047 -4.5362,13.0112 2.381,0.035 1.0313,-3.2619 4.8545,0.01 1.0972,3.2428 2.3294,0.016 -4.603,-13.0427 z m 1.3099,2.3082 1.8908,5.5318 h -3.8356 z" />
    <path
       id="path40-0-4"
       style="display:inline;opacity:1;mix-blend-mode:lighten;fill:#fcfcfc;fill-opacity:1;stroke:none;stroke-width:11.325;stroke-linecap:butt;stroke-linejoin:miter;stroke-dasharray:none;stroke-dashoffset:0;stroke-opacity:1;paint-order:normal"
       d="m 364.21968,675.07657 -4.5486,13.0307 2.3397,0.016 1.14,-3.2624 4.7467,0.01 1.0785,3.2573 2.3202,7e-4 -4.408,-13.043 z m 1.3741,2.3172 1.8911,5.5781 -3.95,-0.023 z" />
    <path
       style="opacity:1;fill:#fcfcfc;fill-opacity:1;stroke:none;stroke-width:11.507;stroke-linecap:butt;stroke-linejoin:miter;stroke-dasharray:none;stroke-dashoffset:0;stroke-opacity:1;paint-order:normal"
       d="m 379.04538,675.48237 2.3861,0.016 0.042,8.3638 c 0,0.37 0.1012,2.4677 3.5366,2.4813 3.4306,0.014 3.3388,-1.7746 3.3393,-2.3605 l 0.01,-8.5004 h 2.382 v 9.0502 c 0,0.9431 -0.7096,4.04 -5.7402,4.0017 -5.5676,-0.042 -5.9205,-3.4184 -5.9228,-4.0861 z"
       id="path42-1" />
    <path
       style="display:inline;opacity:1;mix-blend-mode:lighten;fill:#fcfcfc;fill-opacity:1;stroke:none;stroke-width:11.507;stroke-linecap:butt;stroke-linejoin:miter;stroke-dasharray:none;stroke-dashoffset:0;stroke-opacity:1;paint-order:normal"
       d="m 530.64938,675.16897 2.3862,0.016 0.042,8.3638 c 0,0.37 0.1011,2.4677 3.5366,2.4813 3.4306,0.014 3.3387,-1.7746 3.3392,-2.3605 l 0.01,-8.5004 h 2.382 v 9.0502 c 0,0.9431 -0.7095,4.04 -5.7402,4.0017 -5.5676,-0.042 -5.9204,-3.4184 -5.9227,-4.0861 z"
       id="path42-1-5" />
    <path
       style="opacity:1;fill:#fcfcfc;fill-opacity:1;stroke:none;stroke-width:11.4801;stroke-linecap:butt;stroke-linejoin:miter;stroke-dasharray:none;stroke-dashoffset:0;stroke-opacity:1;paint-order:normal"
       d="m 398.29998,675.06557 2.6917,0.023 3.21,4.4571 3.0804,-4.4585 h 2.4644 l -4.2955,6.3104 4.4324,6.6776 -2.6501,-0.021 -3.0316,-4.7653 -3.1489,4.7433 -2.8629,0.01 4.7136,-6.6004 z"
       id="path43-3" />
    <path
       style="opacity:1;fill:#fcfcfc;fill-opacity:1;stroke:none;stroke-width:11.5973;stroke-linecap:butt;stroke-linejoin:miter;stroke-dasharray:none;stroke-dashoffset:0;stroke-opacity:1;paint-order:normal"
       d="m 342.06998,675.00787 2.3485,0.01 3.3855,10.618 3.5375,-10.6253 2.4219,0.053 -4.3,12.9992 h -3.501 z"
       id="path44-1" />
    <path
       style="opacity:1;fill:#fcfcfc;fill-opacity:1;stroke:none;stroke-width:12.1507;stroke-linecap:butt;stroke-linejoin:miter;stroke-dasharray:none;stroke-dashoffset:0;stroke-opacity:1;paint-order:normal"
       d="m 487.05808,678.77947 c 0,0 -1.958,-1.4996 -4.0142,-1.4181 -1.714,0.068 -2.8513,0.1216 -2.8894,1.6458 -0.049,1.953 2.7002,1.5216 4.6255,2.1457 1.8668,0.6052 3.9086,1.9637 3.8812,3.5595 -0.027,1.5765 -1.7031,3.8232 -5.4869,3.7402 -2.893,-0.064 -4.4566,-1.148 -5.9936,-2.2794 l 1.7435,-1.4107 c 0,0 1.6382,1.582 4.1931,1.5561 1.9684,-0.021 3.3282,-0.01 3.3583,-1.5569 0.029,-1.5146 -3.6915,-1.8498 -5.6902,-2.4596 -1.1919,-0.3637 -3.0901,-1.2848 -3.0949,-3.4499 0,-2.1616 2.8296,-3.4516 5.4695,-3.45 3.406,0 5.3291,2.1749 5.3291,2.1749 z"
       id="path45-1" />
    <path
       style="display:inline;opacity:1;mix-blend-mode:lighten;fill:#fcfcfc;fill-opacity:1;stroke:none;stroke-width:12.1507;stroke-linecap:butt;stroke-linejoin:miter;stroke-dasharray:none;stroke-dashoffset:0;stroke-opacity:1;paint-order:normal"
       d="m 630.49828,678.42027 c 0,0 -1.958,-1.4996 -4.0142,-1.4181 -1.714,0.068 -2.8513,0.1216 -2.8894,1.6458 -0.049,1.953 2.7002,1.5216 4.6255,2.1457 1.8668,0.6052 3.9086,1.9637 3.8812,3.5595 -0.027,1.5765 -1.7031,3.8232 -5.4869,3.7402 -2.893,-0.064 -4.4566,-1.148 -5.9936,-2.2794 l 1.7435,-1.4107 c 0,0 1.6382,1.582 4.1931,1.5561 1.9684,-0.021 3.3282,-0.01 3.3583,-1.5569 0.029,-1.5146 -3.6915,-1.8498 -5.6902,-2.4596 -1.1919,-0.3637 -3.0901,-1.2848 -3.0949,-3.4499 0,-2.1616 2.8296,-3.4516 5.4695,-3.45 3.406,0 5.329,2.1749 5.329,2.1749 z"
       id="path45-1-4" />
    <path
       style="opacity:1;fill:#fcfcfc;fill-opacity:1;stroke:none;stroke-width:13.4199;stroke-linecap:butt;stroke-linejoin:miter;stroke-dasharray:none;stroke-dashoffset:0;stroke-opacity:1;paint-order:normal"
       d="m 513.18238,674.93767 -10e-4,13.0526 h 11.6947 l -0.052,-2.1498 -9.2838,10e-5 0.1512,-10.865 z"
       id="path46-0" />
    <path
       style="opacity:1;fill:#fcfcfc;fill-opacity:1;stroke:none;stroke-width:15.3357;stroke-linecap:butt;stroke-linejoin:miter;stroke-dasharray:none;stroke-dashoffset:0;stroke-opacity:1;paint-order:normal"
       d="m 568.38898,675.08277 0.015,2.1342 4.6637,-0.01 -0.09,8.8076 -4.6574,0.081 0.025,2.0839 11.7029,-0.016 0.01,-2.0894 -4.6218,-0.029 -0.047,-8.7927 4.6937,-0.069 -0.048,-2.1188 z"
       id="path47-8" />
    <path
       style="opacity:1;fill:#9d9990;fill-opacity:1;stroke:none;stroke-width:12.537;stroke-linecap:butt;stroke-linejoin:miter;stroke-dasharray:none;stroke-dashoffset:0;stroke-opacity:1;paint-order:normal"
       d="m 402.40238,716.69527 -0.08,2.3928 h 126.6573 l -0.08,-2.3928 z"
       id="path48-4" />
    <path
       style="opacity:1;fill:#a29a87;fill-opacity:1;stroke:none;stroke-width:12.537;stroke-linecap:butt;stroke-linejoin:miter;stroke-dasharray:none;stroke-dashoffset:0;stroke-opacity:1;paint-order:normal"
       d="m 677.21558,658.97957 0.368,42.3163 -217.8369,111.8622 -218.5729,-111.8622 v -42.3163 l -18.7664,0.368 v 52.6194 l 236.9713,121.7973 236.9713,-121.0614 -0.368,-53.7233 z"
       id="path49-9" />
    <path
       style="opacity:1;fill:#756a5b;fill-opacity:1;fill-rule:nonzero;stroke:none;stroke-width:0;stroke-linecap:butt;stroke-linejoin:miter;stroke-dasharray:none;stroke-dashoffset:0;stroke-opacity:1;paint-order:normal"
       d="m 155.15558,550.87757 -0.071,44.9987 h 4.984 l -0.4272,-38.2346 12.0329,33.5354 h 4.272 l 11.7481,-33.2506 -0.4272,37.9498 5.7672,-0.071 -0.4272,-44.9987 -6.8352,-0.2136 -11.7481,33.6066 -12.6025,-33.5354 z"
       id="path50-3" />
  </g>
</svg>
