<?xml version="1.0" encoding="UTF-8" standalone="no"?>
<svg
    id="Camada_1"
    version="1.1"
    viewBox="0 0 449.87999 103.66999"
    sodipodi:docname="logo-fin.svg"
    width="449.88"
    height="103.66999"
    inkscape:version="1.4.2 (ebf0e940, 2025-05-08)"
    xmlns:inkscape="http://www.inkscape.org/namespaces/inkscape"
    xmlns:sodipodi="http://sodipodi.sourceforge.net/DTD/sodipodi-0.dtd"
    xmlns="http://www.w3.org/2000/svg"
    xmlns:svg="http://www.w3.org/2000/svg">
    <!-- Generator: Adobe Illustrator 29.6.1, SVG Export Plug-In . SVG Version: 2.1.1 Build 9)  -->
    <defs
        id="defs1">
        <style
            id="style1">
            .st0 {
            fill: none;
            stroke: #1d1d1b;
            stroke-miterlimit: 10;
            stroke-width: .25px;
            }

            .st1 {
            fill: #a39a8a;
            }

            .st2 {
            fill: #776a5f;
            }
        </style>
    </defs>
    <sodipodi:namedview
        id="namedview1"
        bordercolor="#000000"
        borderopacity="0.25"
        pagecolor="#2b2b2b"
        inkscape:showpageshadow="2"
        inkscape:pageopacity="0.0"
        inkscape:pagecheckerboard="0"
        inkscape:deskcolor="#d1d1d1"
        inkscape:zoom="1.1984938"
        inkscape:cx="233.62657"
        inkscape:cy="124.32271"
        inkscape:window-width="1824"
        inkscape:window-height="1081"
        inkscape:window-x="1991"
        inkscape:window-y="39"
        inkscape:window-maximized="0"
        inkscape:current-layer="Camada_1" />
    <g
        id="g30"
        transform="translate(-64.78,-163.58)">
        <rect
            class="st1"
            x="79.089996"
            y="259.54999"
            width="264.29001"
            height="7.6999998"
            id="rect2" />
        <g
            id="g10">
            <path
                class="st1"
                d="m 223.91,231.85 6.24,1.4 c -2.99,12.06 -9.74,18.09 -20.26,18.09 -6.91,0 -12.34,-2.79 -16.27,-8.37 -3.94,-5.58 -5.9,-12.44 -5.9,-20.59 0,-8.15 2.05,-15.17 6.17,-20.27 4.11,-5.1 9.62,-7.65 16.53,-7.65 10.25,0 16.83,5.86 19.74,17.57 l -6.45,1.28 c -2.35,-8.7 -6.79,-13.05 -13.33,-13.05 -4.83,0 -8.57,2.02 -11.23,6.06 -2.66,4.04 -3.98,9.72 -3.98,17.03 0,6.7 1.36,12.07 4.08,16.11 2.72,4.04 6.32,6.06 10.81,6.06 6.97,0 11.58,-4.56 13.85,-13.69 z"
                id="path2" />
            <path
                class="st1"
                d="m 257.5,251.34 c -7.02,0 -12.49,-2.73 -16.41,-8.19 -3.92,-5.46 -5.88,-12.16 -5.88,-20.09 0,-7.93 2.05,-15.12 6.17,-20.51 4.11,-5.39 9.55,-8.09 16.33,-8.09 6.78,0 12.17,2.65 16.25,7.95 4.08,5.3 6.12,11.99 6.12,20.05 0,8.06 -1.98,14.49 -5.94,20.25 -3.96,5.75 -9.51,8.63 -16.63,8.63 z m 0.16,-5.56 c 4.78,0 8.51,-2.18 11.21,-6.53 2.7,-4.35 4.04,-9.96 4.04,-16.83 0,-6.87 -1.4,-12.54 -4.18,-16.47 -2.79,-3.93 -6.49,-5.89 -11.11,-5.89 -4.62,0 -8.38,2.12 -11.13,6.37 -2.75,4.25 -4.12,9.8 -4.12,16.67 0,6.87 1.39,12.16 4.16,16.37 2.77,4.21 6.48,6.31 11.13,6.31 z"
                id="path3" />
            <path
                class="st1"
                d="m 330.6,250.22 h -6.65 l -28.26,-47.63 0.08,3.6 c 0.08,1.36 0.12,2.51 0.12,3.44 v 40.59 h -5.52 v -54.64 h 8.57 l 26.42,44.53 -0.08,-3.8 c -0.05,-1.49 -0.08,-2.81 -0.08,-3.96 v -36.77 h 5.4 z"
                id="path4" />
            <path
                class="st1"
                d="m 376.99,231.85 6.24,1.4 c -2.99,12.06 -9.74,18.09 -20.26,18.09 -6.91,0 -12.34,-2.79 -16.27,-8.37 -3.94,-5.58 -5.9,-12.44 -5.9,-20.59 0,-8.15 2.05,-15.17 6.17,-20.27 4.11,-5.1 9.62,-7.65 16.53,-7.65 10.25,0 16.83,5.86 19.74,17.57 l -6.45,1.28 c -2.35,-8.7 -6.79,-13.05 -13.33,-13.05 -4.83,0 -8.57,2.02 -11.23,6.06 -2.66,4.04 -3.98,9.72 -3.98,17.03 0,6.7 1.36,12.07 4.08,16.11 2.72,4.04 6.32,6.06 10.81,6.06 6.96,0 11.58,-4.56 13.85,-13.69 z"
                id="path5" />
            <path
                class="st1"
                d="m 443.48,250.22 h -6.85 v -54.64 h 19.38 c 6.06,0 10.53,1.65 13.41,4.94 2.88,3.3 4.32,7.05 4.32,11.27 0,4.7 -1.57,8.58 -4.7,11.65 -3.14,3.07 -7.24,4.6 -12.31,4.6 h -13.25 z m 0,-27.86 h 12.57 c 3.23,0 5.83,-0.97 7.81,-2.9 1.97,-1.93 2.96,-4.49 2.96,-7.67 0,-2.72 -0.88,-5.15 -2.64,-7.28 -1.76,-2.13 -4.31,-3.2 -7.65,-3.2 h -13.05 v 21.06 z"
                id="path6" />
            <path
                class="st1"
                d="m 498.96,250.22 h -6.85 v -48.64 h -15.65 v -6 h 38.19 v 6 h -15.69 z"
                id="path7" />
            <g
                id="g9">
                <rect
                    class="st1"
                    x="393.31"
                    y="218.96001"
                    width="25.99"
                    height="5.5599999"
                    id="rect7" />
                <rect
                    class="st1"
                    x="393.31"
                    y="195.58"
                    width="32.84"
                    height="6"
                    id="rect8" />
                <rect
                    class="st1"
                    x="393.31"
                    y="244.22"
                    width="33.75"
                    height="6"
                    id="rect9" />
            </g>
        </g>
        <g
            id="g11">
            <path
                class="st2"
                d="m 138.86,196.7 v 54.64 h -15.57 v -39.07 l -10.11,39.07 H 102.53 L 92.02,212.27 v 39.07 H 79.45 V 196.7 h 21.92 l 7.93,29.02 7.57,-29.02 h 22 z"
                id="path10" />
            <path
                class="st2"
                d="m 162.44,222.96 c 3.04,-0.83 5.33,-2.34 6.87,-4.54 1.53,-2.2 2.3,-4.66 2.3,-7.39 0,-3.74 -1.32,-7.06 -3.96,-9.97 -2.64,-2.91 -6.85,-4.36 -12.61,-4.36 h -12.29 v 11.73 h 7.49 c 3.74,0 5.6,1.52 5.6,4.56 0,1.12 -0.4,2.18 -1.2,3.16 -0.8,0.99 -2.18,1.48 -4.12,1.48 h -7.77 v 11.61 h 7.61 c 2.46,0 4.14,0.53 5.06,1.58 0.92,1.05 1.38,2.21 1.38,3.46 0,1.25 -0.47,2.38 -1.42,3.38 -0.95,1 -2.44,1.5 -4.46,1.5 h -8.17 v 12.17 h 10.57 c 8.17,0 13.5,-1.59 15.99,-4.78 2.5,-3.19 3.74,-6.81 3.74,-10.87 0,-6.78 -3.54,-11.02 -10.61,-12.73 z"
                id="path11" />
        </g>
        <g
            id="g29">
            <path
                class="st2"
                d="m 355.94,267.08 h -1.42 v -6.22 h -1.95 v -1.14 h 5.33 v 1.14 h -1.95 v 6.22 z"
                id="path12" />
            <path
                class="st2"
                d="m 367.19,267.08 h -1.4 l -1.14,-3.02 h -1.86 v 3.02 h -1.32 v -7.35 h 3.19 c 0.89,0 1.54,0.2 1.95,0.6 0.41,0.4 0.62,0.92 0.62,1.55 0,0.95 -0.44,1.59 -1.33,1.95 z m -4.41,-4.09 h 1.65 c 0.48,0 0.83,-0.1 1.07,-0.3 0.23,-0.2 0.35,-0.48 0.35,-0.83 0,-0.32 -0.12,-0.59 -0.34,-0.79 -0.23,-0.2 -0.55,-0.3 -0.96,-0.3 h -1.76 v 2.21 z"
                id="path13" />
            <path
                class="st2"
                d="m 377.07,267.08 h -1.42 l -0.59,-1.75 h -2.83 l -0.58,1.75 h -1.13 l 2.44,-7.35 h 1.63 l 2.47,7.35 z m -2.36,-2.81 -1.07,-3.28 -1.07,3.28 z"
                id="path14" />
            <path
                class="st2"
                d="m 383.54,267.08 h -1.35 l -2.27,-7.35 h 1.4 l 1.69,5.63 1.72,-5.63 h 1.1 l -2.3,7.35 z"
                id="path15" />
            <path
                class="st2"
                d="m 395.2,267.08 h -1.42 l -0.59,-1.75 h -2.83 l -0.58,1.75 h -1.13 l 2.44,-7.35 h 1.63 l 2.47,7.35 z m -2.36,-2.81 -1.07,-3.28 -1.07,3.28 z"
                id="path16" />
            <path
                class="st2"
                d="m 403.88,259.72 v 4.72 c 0,0.64 -0.07,1.13 -0.22,1.47 -0.14,0.34 -0.42,0.64 -0.83,0.89 -0.41,0.25 -0.91,0.38 -1.51,0.38 -0.6,0 -1.09,-0.11 -1.48,-0.32 -0.39,-0.22 -0.66,-0.51 -0.83,-0.89 -0.17,-0.38 -0.25,-0.85 -0.25,-1.43 v -4.82 h 1.35 v 4.72 c 0,0.65 0.14,1.07 0.41,1.27 0.27,0.21 0.59,0.31 0.95,0.31 0.41,0 0.74,-0.11 0.99,-0.33 0.25,-0.22 0.37,-0.63 0.37,-1.25 v -4.72 z"
                id="path17" />
            <path
                class="st2"
                d="m 413.54,267.08 h -1.55 l -1.63,-2.9 -1.72,2.9 h -1.23 l 2.33,-3.83 -2,-3.52 h 1.54 l 1.36,2.45 1.44,-2.45 h 1.24 l -2.05,3.35 z"
                id="path18" />
            <path
                class="st2"
                d="m 424.69,267.08 h -4.78 v -7.35 h 4.73 v 1.09 h -3.4 v 1.99 h 2.74 v 1.07 h -2.74 v 2.06 h 3.45 z"
                id="path19" />
            <path
                class="st2"
                d="m 431.16,267.08 h -1.42 v -6.22 h -1.95 v -1.14 h 5.33 v 1.14 h -1.95 v 6.22 z"
                id="path20" />
            <path
                class="st2"
                d="m 438.67,265.3 1.29,-0.28 c 0.15,0.73 0.75,1.09 1.78,1.09 0.47,0 0.83,-0.09 1.09,-0.28 0.25,-0.18 0.38,-0.42 0.38,-0.69 0,-0.2 -0.06,-0.39 -0.17,-0.56 -0.12,-0.17 -0.36,-0.3 -0.74,-0.4 l -1.41,-0.37 c -0.48,-0.12 -0.84,-0.27 -1.07,-0.43 -0.23,-0.16 -0.41,-0.39 -0.55,-0.67 -0.14,-0.29 -0.21,-0.6 -0.21,-0.93 0,-0.66 0.24,-1.18 0.73,-1.58 0.49,-0.4 1.11,-0.6 1.87,-0.6 0.63,0 1.2,0.14 1.69,0.42 0.5,0.28 0.81,0.67 0.95,1.17 l -1.26,0.31 c -0.19,-0.56 -0.65,-0.84 -1.36,-0.84 -0.41,0 -0.73,0.09 -0.95,0.26 -0.22,0.17 -0.33,0.39 -0.33,0.66 0,0.42 0.34,0.71 1.02,0.88 l 1.25,0.31 c 0.76,0.19 1.27,0.47 1.52,0.84 0.25,0.37 0.39,0.78 0.39,1.23 0,0.72 -0.27,1.29 -0.82,1.71 -0.54,0.42 -1.25,0.62 -2.11,0.62 -0.73,0 -1.37,-0.15 -1.91,-0.46 -0.55,-0.3 -0.91,-0.78 -1.09,-1.43 z"
                id="path21" />
            <path
                class="st2"
                d="m 451.21,267.19 c -0.98,0 -1.74,-0.37 -2.28,-1.1 -0.54,-0.73 -0.82,-1.64 -0.82,-2.71 0,-1.07 0.29,-1.96 0.87,-2.69 0.58,-0.72 1.34,-1.08 2.29,-1.08 0.95,0 1.71,0.36 2.27,1.08 0.55,0.72 0.83,1.62 0.83,2.7 0,1.14 -0.29,2.05 -0.87,2.75 -0.58,0.7 -1.34,1.05 -2.29,1.05 z m 0.01,-1.07 c 0.48,0 0.88,-0.2 1.21,-0.59 0.33,-0.4 0.5,-1.11 0.5,-2.15 0,-0.84 -0.14,-1.51 -0.41,-1.98 -0.27,-0.48 -0.7,-0.72 -1.27,-0.72 -1.13,0 -1.7,0.91 -1.7,2.74 0,0.89 0.14,1.56 0.43,2.02 0.29,0.46 0.7,0.69 1.24,0.69 z"
                id="path22" />
            <path
                class="st2"
                d="m 462.88,267.08 h -4.52 v -7.35 h 1.39 v 6.15 h 3.13 z"
                id="path23" />
            <path
                class="st2"
                d="m 471.65,259.72 v 4.72 c 0,0.64 -0.07,1.13 -0.22,1.47 -0.14,0.34 -0.42,0.64 -0.83,0.89 -0.41,0.25 -0.91,0.38 -1.51,0.38 -0.6,0 -1.09,-0.11 -1.48,-0.32 -0.39,-0.22 -0.66,-0.51 -0.83,-0.89 -0.17,-0.38 -0.25,-0.85 -0.25,-1.43 v -4.82 h 1.35 v 4.72 c 0,0.65 0.13,1.07 0.41,1.27 0.27,0.21 0.59,0.31 0.95,0.31 0.41,0 0.74,-0.11 0.99,-0.33 0.25,-0.22 0.37,-0.63 0.37,-1.25 v -4.72 z"
                id="path24" />
            <path
                class="st2"
                d="m 478.49,267.08 h -1.42 v -6.22 h -1.95 v -1.14 h 5.33 v 1.14 h -1.96 z"
                id="path25" />
            <path
                class="st2"
                d="m 485.34,267.08 h -1.33 v -7.35 h 1.33 z"
                id="path26" />
            <path
                class="st2"
                d="m 492.42,267.19 c -0.98,0 -1.74,-0.37 -2.28,-1.1 -0.54,-0.73 -0.82,-1.64 -0.82,-2.71 0,-1.07 0.29,-1.96 0.87,-2.69 0.58,-0.72 1.34,-1.08 2.29,-1.08 0.95,0 1.71,0.36 2.27,1.08 0.55,0.72 0.83,1.62 0.83,2.7 0,1.14 -0.29,2.05 -0.86,2.75 -0.58,0.7 -1.34,1.05 -2.29,1.05 z m 0.01,-1.07 c 0.48,0 0.88,-0.2 1.21,-0.59 0.33,-0.39 0.5,-1.11 0.5,-2.15 0,-0.84 -0.14,-1.51 -0.41,-1.98 -0.27,-0.47 -0.7,-0.72 -1.27,-0.72 -1.13,0 -1.7,0.91 -1.7,2.74 0,0.89 0.14,1.56 0.43,2.02 0.29,0.46 0.7,0.69 1.24,0.69 z"
                id="path27" />
            <path
                class="st2"
                d="m 505.12,267.08 h -1.29 l -2.79,-4.7 c -0.04,-0.07 -0.11,-0.19 -0.21,-0.35 -0.04,-0.07 -0.11,-0.18 -0.2,-0.34 v 5.38 h -1.07 v -7.35 h 1.46 l 2.57,4.33 c 0,0 0.18,0.3 0.47,0.79 v -5.12 h 1.04 v 7.35 z"
                id="path28" />
            <path
                class="st2"
                d="m 508.72,265.3 1.29,-0.28 c 0.15,0.73 0.75,1.09 1.78,1.09 0.47,0 0.83,-0.09 1.09,-0.28 0.25,-0.18 0.38,-0.42 0.38,-0.69 0,-0.2 -0.06,-0.39 -0.17,-0.56 -0.12,-0.17 -0.36,-0.3 -0.74,-0.4 l -1.4,-0.37 c -0.48,-0.12 -0.84,-0.27 -1.07,-0.43 -0.23,-0.16 -0.41,-0.39 -0.55,-0.67 -0.14,-0.29 -0.21,-0.6 -0.21,-0.93 0,-0.66 0.24,-1.18 0.73,-1.58 0.49,-0.4 1.11,-0.6 1.88,-0.6 0.63,0 1.2,0.14 1.69,0.42 0.49,0.28 0.81,0.67 0.95,1.17 l -1.26,0.31 c -0.19,-0.56 -0.65,-0.84 -1.36,-0.84 -0.41,0 -0.73,0.09 -0.95,0.26 -0.22,0.17 -0.32,0.39 -0.32,0.66 0,0.42 0.34,0.71 1.02,0.88 l 1.25,0.31 c 0.76,0.19 1.26,0.47 1.52,0.84 0.26,0.37 0.39,0.78 0.39,1.23 0,0.72 -0.27,1.29 -0.82,1.71 -0.54,0.42 -1.25,0.62 -2.11,0.62 -0.73,0 -1.37,-0.15 -1.91,-0.46 -0.55,-0.3 -0.91,-0.78 -1.09,-1.43 z"
                id="path29" />
        </g>
        <polygon
            class="st1"
            points="126.25,163.58 86.74,183.9 86.74,170.13 82,170.13 82,186.34 64.78,195.19 66.95,199.4 126.25,168.91 185.56,199.4 187.73,195.19 126.26,163.58 126.25,163.58 "
            id="polygon29" />
    </g>
</svg>
